<svg viewBox="0 0 640 400" data-background-color="#60777f" preserveAspectRatio="xMidYMid meet" height="400" width="640" xmlns="http://www.w3.org/2000/svg" xmlns:xlink="http://www.w3.org/1999/xlink"><rect width="640" height="400" x="0" y="0" opacity="1" fill="#60777f" data-fill-palette-color="background" id="background"></rect><g id="tight-bounds" transform="matrix(1,0,0,1,122.24000000000001,76.4)"><svg viewBox="0 0 395.52 247.2" height="247.2" width="395.52"><g><svg></svg></g><g><svg viewBox="0 0 395.52 247.2" height="247.2" width="395.52"><g><path xmlns="http://www.w3.org/2000/svg" d="M55.039 247.2l78.987-136.81v91.078h127.468v-91.078l78.987 136.81zM197.76 0l26.403 45.732-52.806 0z" fill="#ffffff" fill-rule="nonzero" stroke="none" stroke-width="1" stroke-linecap="butt" stroke-linejoin="miter" stroke-miterlimit="10" stroke-dasharray="" stroke-dashoffset="0" font-family="none" font-weight="none" font-size="none" text-anchor="none" style="mix-blend-mode: normal" data-fill-palette-color="tertiary"></path></g><g transform="matrix(1,0,0,1,156.2742032967033,67.97999999999999)"><svg viewBox="0 0 82.9715934065934 111.24" height="111.24" width="82.9715934065934"><g><svg viewBox="0 0 82.9715934065934 111.24" height="111.24" width="82.9715934065934"><g><svg viewBox="0 0 82.9715934065934 111.24" height="111.24" width="82.9715934065934"><g><svg viewBox="0 0 82.9715934065934 111.24" height="111.24" width="82.9715934065934"><g><svg viewBox="0 0 82.9715934065934 111.24" height="111.24" width="82.9715934065934"><g transform="matrix(1,0,0,1,0,0)"><svg width="82.9715934065934" viewBox="3.6100001335144043 -35.54999923706055 26.51999855041504 35.54999923706055" height="111.24" data-palette-color="#ffffff"><path d="M13.84 0L3.61 0 3.61-35.55 14.11-35.55Q18.82-35.55 22.47-33.45 26.12-31.35 28.13-27.49 30.13-23.63 30.13-18.65L30.13-18.65 30.13-16.87Q30.13-11.82 28.11-7.98 26.1-4.15 22.38-2.08 18.65 0 13.84 0L13.84 0ZM14.11-30.57L9.79-30.57 9.79-4.93 13.82-4.93Q18.68-4.93 21.28-7.97 23.88-11.01 23.93-16.7L23.93-16.7 23.93-18.68Q23.93-24.46 21.41-27.51 18.9-30.57 14.11-30.57L14.11-30.57Z" opacity="1" transform="matrix(1,0,0,1,0,0)" fill="#ffffff" class="undefined-text-0" data-fill-palette-color="primary" id="text-0"></path></svg></g></svg></g></svg></g></svg></g></svg></g></svg></g></svg></g><defs></defs></svg><rect width="395.52" height="247.2" fill="none" stroke="none" visibility="hidden"></rect></g></svg>